<?xml version="1.0" standalone="no"?>
<!DOCTYPE svg PUBLIC "-//W3C//DTD SVG 20010904//EN"
 "http://www.w3.org/TR/2001/REC-SVG-20010904/DTD/svg10.dtd">
<svg version="1.0" xmlns="http://www.w3.org/2000/svg"
 width="290.000000pt" height="114.000000pt" viewBox="0 0 290.000000 114.000000"
 preserveAspectRatio="xMidYMid meet">
<metadata>
Created by potrace 1.10, written by Peter Selinger 2001-2011
</metadata>
<g transform="translate(0.000000,114.000000) scale(0.100000,-0.100000)"
fill="#f1f1f1" stroke="none">
<path d="M2294 1130 c-25 -10 -84 -76 -84 -95 0 -26 17 -24 39 5 45 61 104 29
157 -85 70 -150 69 -368 -3 -447 -10 -12 -30 -18 -56 -18 -29 0 -48 -7 -72
-29 l-33 -29 137 -7 137 -7 33 31 33 31 -76 0 c-42 0 -76 3 -76 8 0 4 14 15
30 24 39 22 67 69 74 127 18 130 50 216 117 311 59 84 124 121 171 98 13 -6
23 0 42 25 33 43 33 54 -3 62 -41 9 -100 -9 -143 -45 -50 -41 -119 -149 -154
-238 l-28 -74 -12 64 c-28 146 -93 263 -161 289 -29 11 -41 11 -69 -1z m556
-26 c0 -20 -22 -27 -51 -15 -15 6 -18 10 -8 10 9 1 22 8 29 16 14 17 30 11 30
-11z m-471 -20 c52 -45 82 -104 110 -213 11 -46 25 -89 31 -95 6 -8 6 -25 0
-47 -4 -19 -11 -57 -15 -86 -4 -28 -13 -60 -21 -70 -13 -16 -14 -14 -7 22 16
82 9 216 -16 293 -30 91 -77 170 -118 198 -18 12 -29 24 -26 28 11 11 18 7 62
-30z m41 -618 c0 -2 -7 -6 -15 -10 -8 -3 -15 -1 -15 4 0 6 7 10 15 10 8 0 15
-2 15 -4z"/>
<path d="M175 1115 c-5 -2 -35 -11 -65 -20 -68 -21 -110 -50 -110 -76 0 -20 0
-20 21 0 37 34 195 59 184 29 -3 -7 -16 -113 -30 -236 -30 -267 -50 -322 -120
-322 -34 0 -55 -15 -55 -41 0 -13 13 -18 61 -23 114 -11 141 -8 179 24 l34 30
-72 0 c-41 0 -72 4 -72 10 0 6 6 10 14 10 25 0 74 55 85 96 5 21 19 120 30
219 11 99 25 204 31 234 5 29 10 58 10 62 0 8 -102 11 -125 4z m82 -67 c-3
-24 -15 -124 -26 -223 -27 -227 -28 -235 -51 -265 -19 -25 -19 -25 -6 35 25
111 60 455 47 468 -18 18 -13 27 15 27 25 0 26 -2 21 -42z"/>
<path d="M1121 899 c-25 -22 -66 -54 -92 -71 -39 -25 -67 -63 -56 -75 2 -1 29
19 61 44 l58 46 -6 -29 c-5 -26 -15 -118 -31 -294 -24 -264 -33 -313 -69 -373
-31 -54 -80 -80 -140 -75 -36 2 -48 -2 -79 -29 -20 -18 -37 -35 -37 -38 0 -14
37 -3 50 15 8 11 21 20 29 20 11 0 10 -5 -5 -21 -18 -20 -18 -20 11 -14 76 16
115 38 169 95 68 71 111 158 127 254 l11 71 42 1 c141 4 278 160 293 331 6 80
-8 138 -39 154 -53 29 -155 -35 -228 -143 l-42 -63 6 80 c4 44 9 97 13 118 3
20 4 37 2 37 -2 -1 -24 -19 -48 -41z m295 -34 c13 -21 16 -41 11 -98 -3 -40
-10 -83 -16 -97 -8 -20 -10 -5 -10 68 -1 86 -3 95 -26 117 -18 16 -22 25 -13
28 26 11 38 7 54 -18z m-293 -218 c-24 -69 -28 -145 -8 -167 16 -17 15 -20 -4
-39 -12 -12 -22 -29 -23 -38 0 -10 -2 -30 -3 -46 -3 -35 -15 -48 -15 -16 0 45
42 494 48 509 3 8 9 -25 12 -75 4 -62 2 -102 -7 -128z m249 164 c15 -36 -5
-188 -30 -237 -44 -86 -111 -117 -184 -87 l-31 13 7 62 c8 76 41 152 92 208
72 80 124 95 146 41z"/>
<path d="M652 889 c-68 -27 -149 -106 -187 -183 -37 -75 -48 -219 -21 -261 18
-27 54 -33 101 -15 34 13 152 126 172 163 23 45 27 25 13 -63 -14 -87 -7 -110
32 -110 50 0 149 96 147 144 0 21 0 21 -12 1 -7 -11 -27 -35 -45 -54 -54 -56
-59 -36 -33 151 12 90 27 179 32 198 6 24 5 36 -4 42 -24 15 -141 7 -195 -13z
m168 -18 c0 -4 -9 -68 -21 -142 -13 -84 -19 -161 -16 -206 3 -57 1 -73 -10
-73 -7 0 -13 3 -13 8 -5 102 -1 212 7 227 6 11 13 36 18 55 16 79 15 93 -7
117 l-21 23 31 0 c18 0 32 -4 32 -9z m-80 -22 c32 -12 32 -12 26 -63 -10 -78
-67 -186 -127 -240 -58 -52 -91 -65 -115 -45 -14 11 -16 28 -12 99 6 104 35
176 89 225 42 38 79 44 139 24z m-257 -246 c-5 -85 -4 -89 21 -116 33 -35 32
-37 -3 -37 -36 0 -41 13 -41 97 0 55 16 143 26 143 1 0 0 -39 -3 -87z"/>
<path d="M1530 405 l0 -25 265 0 c154 0 265 4 265 9 0 5 3 16 6 25 6 14 -22
16 -265 16 l-271 0 0 -25z"/>
</g>
</svg>
